<?xml version="1.0" encoding="utf-8"?>
<!-- Generator: Adobe Illustrator 16.0.0, SVG Export Plug-In . SVG Version: 6.00 Build 0)  -->
<!DOCTYPE svg PUBLIC "-//W3C//DTD SVG 1.1//EN" "http://www.w3.org/Graphics/SVG/1.1/DTD/svg11.dtd">
<svg version="1.1" id="Layer_1" xmlns="http://www.w3.org/2000/svg" xmlns:xlink="http://www.w3.org/1999/xlink" x="0px" y="0px"
	 width="600.5px" height="555px" viewBox="-2.85 158.95 600.5 555" enable-background="new -2.85 158.95 600.5 555"
	 xml:space="preserve">
<g>
	<g>
		<g>
			<g>
				<defs>
					<rect id="SVGID_1_" y="163" width="595.3" height="545.9"/>
				</defs>
				<clipPath id="SVGID_2_">
					<use xlink:href="#SVGID_1_"  overflow="visible"/>
				</clipPath>
				<path opacity="0.6" clip-path="url(#SVGID_2_)" d="M251.2,163C101.9,222.3,0,364.8,0,512c0,113.9,67.8,196.9,158.4,196.9
					c67.8,0,122.1-52.2,122.1-116.301c0-61.699-42.9-106.8-101.8-106.8c-24.9,0-33.9,7.101-54.3,7.101c-22.6,0-31.6-21.4-31.6-49.9
					c0-85.399,61.1-168.5,174.3-237.3L251.2,163z"/>
			</g>
		</g>
		<g>
			<g>
				<defs>
					<rect id="SVGID_3_" y="163" width="595.3" height="545.9"/>
				</defs>
				<clipPath id="SVGID_4_">
					<use xlink:href="#SVGID_3_"  overflow="visible"/>
				</clipPath>
				<path opacity="0.6" clip-path="url(#SVGID_4_)" d="M565.8,163c-149.301,59.3-251.1,201.8-251.1,349
					c0,113.9,67.799,196.9,158.299,196.9c67.9,0,122.301-52.2,122.301-116.301c0-61.699-43-106.8-101.801-106.8
					c-24.9,0-33.9,7.101-54.299,7.101c-22.602,0-31.602-21.4-31.602-49.9c0-85.399,61.102-168.5,174.301-237.3L565.8,163z"/>
			</g>
		</g>
	</g>
</g>
</svg>
